# Blender v2.79 (sub 0) OBJ File: 'checker.blend'
# www.blender.org
mtllib checker.mtl
v -1.000000 -1.000000 0.000000
v 1.000000 1.000000 0.000000
v -1.000000 0.000000 0.000000
v 0.000000 -1.000000 0.000000
v 1.000000 0.000000 0.000000
v 0.000000 1.000000 0.000000
v 0.000000 0.000000 0.000000
v -1.000000 -0.500000 0.000000
v 0.500000 -1.000000 0.000000
v 1.000000 0.500000 0.000000
v -0.500000 1.000000 0.000000
v -1.000000 0.500000 0.000000
v -0.500000 -1.000000 0.000000
v 1.000000 -0.500000 0.000000
v 0.500000 1.000000 0.000000
v 0.000000 0.500000 0.000000
v 0.000000 -0.500000 0.000000
v -0.500000 0.000000 0.000000
v 0.500000 0.000000 0.000000
v 0.500000 -0.500000 0.000000
v -0.500000 -0.500000 0.000000
v -0.500000 0.500000 0.000000
v 0.500000 0.500000 0.000000
v -1.000000 -0.750000 0.000000
v 0.750000 -1.000000 0.000000
v 1.000000 0.750000 0.000000
v -0.750000 1.000000 0.000000
v -1.000000 0.250000 0.000000
v -0.250000 -1.000000 0.000000
v 1.000000 -0.250000 0.000000
v 0.250000 1.000000 0.000000
v 0.000000 0.750000 0.000000
v 0.000000 -0.250000 0.000000
v -0.750000 0.000000 0.000000
v 0.250000 0.000000 0.000000
v -1.000000 -0.250000 0.000000
v 0.250000 -1.000000 0.000000
v 1.000000 0.250000 0.000000
v -0.250000 1.000000 0.000000
v -1.000000 0.750000 0.000000
v -0.750000 -1.000000 0.000000
v 1.000000 -0.750000 0.000000
v 0.750000 1.000000 0.000000
v 0.000000 0.250000 0.000000
v 0.000000 -0.750000 0.000000
v -0.250000 0.000000 0.000000
v 0.750000 0.000000 0.000000
v 0.500000 -0.250000 0.000000
v 0.500000 -0.750000 0.000000
v 0.250000 -0.500000 0.000000
v 0.750000 -0.500000 0.000000
v -0.500000 -0.250000 0.000000
v -0.500000 -0.750000 0.000000
v -0.750000 -0.500000 0.000000
v -0.250000 -0.500000 0.000000
v -0.500000 0.750000 0.000000
v -0.500000 0.250000 0.000000
v -0.750000 0.500000 0.000000
v -0.250000 0.500000 0.000000
v 0.500000 0.750000 0.000000
v 0.500000 0.250000 0.000000
v 0.250000 0.500000 0.000000
v 0.750000 0.500000 0.000000
v 0.750000 0.250000 0.000000
v 0.250000 0.250000 0.000000
v 0.250000 0.750000 0.000000
v -0.250000 0.250000 0.000000
v -0.750000 0.250000 0.000000
v -0.750000 0.750000 0.000000
v -0.250000 -0.750000 0.000000
v -0.750000 -0.750000 0.000000
v -0.750000 -0.250000 0.000000
v 0.750000 -0.750000 0.000000
v 0.250000 -0.750000 0.000000
v 0.250000 -0.250000 0.000000
v 0.750000 -0.250000 0.000000
v -0.250000 -0.250000 0.000000
v -0.250000 0.750000 0.000000
v 0.750000 0.750000 0.000000
v 1.000000 -1.000000 0.000000
v -1.000000 1.000000 0.000000
v -1.000000 0.000000 0.000000
v 0.000000 -1.000000 0.000000
v 1.000000 0.000000 0.000000
v 0.000000 1.000000 0.000000
v 0.000000 0.000000 0.000000
v -1.000000 -0.500000 0.000000
v 0.500000 -1.000000 0.000000
v 1.000000 0.500000 0.000000
v -0.500000 1.000000 0.000000
v -1.000000 0.500000 0.000000
v -0.500000 -1.000000 0.000000
v 1.000000 -0.500000 0.000000
v 0.500000 1.000000 0.000000
v 0.000000 0.500000 0.000000
v 0.000000 -0.500000 0.000000
v -0.500000 0.000000 0.000000
v 0.500000 0.000000 0.000000
v 0.500000 -0.500000 0.000000
v -0.500000 -0.500000 0.000000
v -0.500000 0.500000 0.000000
v 0.500000 0.500000 0.000000
v -1.000000 -0.750000 0.000000
v 0.750000 -1.000000 0.000000
v 1.000000 0.750000 0.000000
v -0.750000 1.000000 0.000000
v -1.000000 0.250000 0.000000
v -0.250000 -1.000000 0.000000
v 1.000000 -0.250000 0.000000
v 0.250000 1.000000 0.000000
v 0.000000 0.750000 0.000000
v 0.000000 -0.250000 0.000000
v -0.750000 0.000000 0.000000
v 0.250000 0.000000 0.000000
v -1.000000 -0.250000 0.000000
v 0.250000 -1.000000 0.000000
v 1.000000 0.250000 0.000000
v -0.250000 1.000000 0.000000
v -1.000000 0.750000 0.000000
v -0.750000 -1.000000 0.000000
v 1.000000 -0.750000 0.000000
v 0.750000 1.000000 0.000000
v 0.000000 0.250000 0.000000
v 0.000000 -0.750000 0.000000
v -0.250000 0.000000 0.000000
v 0.750000 0.000000 0.000000
v 0.500000 -0.250000 0.000000
v 0.500000 -0.750000 0.000000
v 0.250000 -0.500000 0.000000
v 0.750000 -0.500000 0.000000
v -0.500000 -0.250000 0.000000
v -0.500000 -0.750000 0.000000
v -0.750000 -0.500000 0.000000
v -0.250000 -0.500000 0.000000
v -0.500000 0.750000 0.000000
v -0.500000 0.250000 0.000000
v -0.750000 0.500000 0.000000
v -0.250000 0.500000 0.000000
v 0.500000 0.750000 0.000000
v 0.500000 0.250000 0.000000
v 0.250000 0.500000 0.000000
v 0.750000 0.500000 0.000000
v 0.750000 0.250000 0.000000
v 0.250000 0.250000 0.000000
v 0.250000 0.750000 0.000000
v -0.250000 0.250000 0.000000
v -0.750000 0.250000 0.000000
v -0.750000 0.750000 0.000000
v -0.250000 -0.750000 0.000000
v -0.750000 -0.750000 0.000000
v -0.750000 -0.250000 0.000000
v 0.750000 -0.750000 0.000000
v 0.250000 -0.750000 0.000000
v 0.250000 -0.250000 0.000000
v 0.750000 -0.250000 0.000000
v -0.250000 -0.250000 0.000000
v -0.250000 0.750000 0.000000
v 0.750000 0.750000 0.000000
vn 0.0000 0.0000 1.0000
vn 0.0000 0.0000 1.0000
usemtl Material.001
f 143//2 102//2 140//2
f 84//2 143//2 126//2
f 144//2 95//2 123//2
f 98//2 144//2 114//2
f 145//2 85//2 111//2
f 102//2 145//2 141//2
f 146//2 101//2 136//2
f 86//2 146//2 125//2
f 147//2 91//2 107//2
f 97//2 147//2 113//2
f 148//2 81//2 119//2
f 101//2 148//2 137//2
f 149//2 100//2 132//2
f 83//2 149//2 108//2
f 150//2 87//2 103//2
f 92//2 150//2 120//2
f 151//2 82//2 115//2
f 100//2 151//2 133//2
f 152//2 99//2 128//2
f 80//2 152//2 104//2
f 153//2 96//2 124//2
f 88//2 153//2 116//2
f 154//2 86//2 112//2
f 99//2 154//2 129//2
f 155//2 98//2 127//2
f 93//2 155//2 130//2
f 156//2 97//2 131//2
f 96//2 156//2 134//2
f 157//2 90//2 135//2
f 95//2 157//2 138//2
f 158//2 94//2 139//2
f 89//2 158//2 142//2
f 143//2 142//2 102//2
f 84//2 117//2 143//2
f 144//2 141//2 95//2
f 98//2 140//2 144//2
f 145//2 110//2 85//2
f 102//2 139//2 145//2
f 146//2 138//2 101//2
f 86//2 123//2 146//2
f 147//2 137//2 91//2
f 97//2 136//2 147//2
f 148//2 106//2 81//2
f 101//2 135//2 148//2
f 149//2 134//2 100//2
f 83//2 124//2 149//2
f 150//2 133//2 87//2
f 92//2 132//2 150//2
f 151//2 113//2 82//2
f 100//2 131//2 151//2
f 152//2 130//2 99//2
f 80//2 121//2 152//2
f 153//2 129//2 96//2
f 88//2 128//2 153//2
f 154//2 114//2 86//2
f 99//2 127//2 154//2
f 155//2 126//2 98//2
f 93//2 109//2 155//2
f 156//2 125//2 97//2
f 96//2 112//2 156//2
f 157//2 118//2 90//2
f 95//2 111//2 157//2
f 158//2 122//2 94//2
f 89//2 105//2 158//2
usemtl Material.002
f 26//1 43//1 79//1
f 32//1 39//1 78//1
f 33//1 46//1 77//1
f 30//1 47//1 76//1
f 48//1 35//1 75//1
f 49//1 50//1 74//1
f 42//1 51//1 73//1
f 52//1 34//1 72//1
f 53//1 54//1 71//1
f 45//1 55//1 70//1
f 56//1 27//1 69//1
f 57//1 58//1 68//1
f 44//1 59//1 67//1
f 60//1 31//1 66//1
f 61//1 62//1 65//1
f 38//1 63//1 64//1
f 47//1 61//1 19//1
f 35//1 44//1 7//1
f 62//1 32//1 16//1
f 46//1 57//1 18//1
f 34//1 28//1 3//1
f 58//1 40//1 12//1
f 29//1 53//1 13//1
f 41//1 24//1 1//1
f 54//1 36//1 8//1
f 25//1 49//1 9//1
f 37//1 45//1 4//1
f 50//1 33//1 17//1
f 51//1 48//1 20//1
f 55//1 52//1 21//1
f 59//1 56//1 22//1
f 63//1 60//1 23//1
f 26//1 2//1 43//1
f 32//1 6//1 39//1
f 33//1 7//1 46//1
f 30//1 5//1 47//1
f 48//1 19//1 35//1
f 49//1 20//1 50//1
f 42//1 14//1 51//1
f 52//1 18//1 34//1
f 53//1 21//1 54//1
f 45//1 17//1 55//1
f 56//1 11//1 27//1
f 57//1 22//1 58//1
f 44//1 16//1 59//1
f 60//1 15//1 31//1
f 61//1 23//1 62//1
f 38//1 10//1 63//1
f 47//1 64//1 61//1
f 35//1 65//1 44//1
f 62//1 66//1 32//1
f 46//1 67//1 57//1
f 34//1 68//1 28//1
f 58//1 69//1 40//1
f 29//1 70//1 53//1
f 41//1 71//1 24//1
f 54//1 72//1 36//1
f 25//1 73//1 49//1
f 37//1 74//1 45//1
f 50//1 75//1 33//1
f 51//1 76//1 48//1
f 55//1 77//1 52//1
f 59//1 78//1 56//1
f 63//1 79//1 60//1
