# Blender v2.79 (sub 0) OBJ File: ''
# www.blender.org
v -2.000000 -2.000000 -2.000000
v 2.000000 -2.000000 -2.000000
v 2.000000 2.000000 -2.000000
v -2.000000 2.000000 -2.000000
v -2.000000 -2.000000 2.000000
v 2.000000 -2.000000 2.000000
v 2.000000 2.000000 2.000000
v -2.000000 2.000000 2.000000
vn 0.0000 0.0000 1.0000
vn 0.0000 0.0000 -1.0000
vn -1.0000 0.0000 0.0000
vn 1.0000 0.0000 0.0000
vn 0.0000 -1.0000 0.0000
vn 0.0000 1.0000 0.0000
f 2//1 4//1 1//1
f 5//2 7//2 6//2
f 3//3 6//3 7//3
f 1//4 8//4 5//4
f 4//5 7//5 8//5
f 5//6 2//6 1//6
f 2//1 3//1 4//1
f 5//2 8//2 7//2
f 3//3 2//3 6//3
f 1//4 4//4 8//4
f 4//5 3//5 7//5
f 5//6 6//6 2//6
